<?xml version="1.0" encoding="UTF-8" standalone="no"?>
<!-- Created with Inkscape (http://www.inkscape.org/) -->
<svg xmlns:dc="http://purl.org/dc/elements/1.1/" xmlns:cc="http://creativecommons.org/ns#" xmlns:rdf="http://www.w3.org/1999/02/22-rdf-syntax-ns#" xmlns:svg="http://www.w3.org/2000/svg" xmlns="http://www.w3.org/2000/svg" version="1.1" width="716.51874" height="544.31836" id="svg2">
  <defs id="defs4"/>
  <metadata id="metadata7">
    <rdf:RDF>
      <cc:Work rdf:about="">
        <dc:format>image/svg+xml</dc:format>
        <dc:type rdf:resource="http://purl.org/dc/dcmitype/StillImage"/>
        <dc:title/>
      </cc:Work>
    </rdf:RDF>
  </metadata>
  <g transform="translate(-16.740625,-260.20301)" id="layer1">
    <g transform="matrix(1.25,0,0,-1.25,16.740625,804.51926)" id="g2993">
      <g id="g2995">
        <path d="m 468.137,237.34 c 0,-100.258 -81.274,-181.528 -181.528,-181.528 -100.254,0 -181.527,81.27 -181.527,181.528 0,100.253 81.273,181.527 181.527,181.527 100.254,0 181.528,-81.274 181.528,-181.527 z" id="path2997" style="fill:#ffffff;fill-opacity:1;fill-rule:nonzero;stroke:none"/>
        <path d="m 121.441,390.625 c 17.422,14.285 37.286,44.828 37.286,44.828 0,0 -6.364,-0.352 -14.848,-5.02 -10.563,-5.808 -23.707,-16.187 -23.707,-16.187 l 1.285,12.851 c 0,0 -10.469,-8.293 -17.148,-19.265 -6.813,-11.196 -9.844,-25.078 -9.844,-25.078 0,0 12.547,-3.961 26.976,7.871 z M 88.406,349 c 9.887,8.945 16.985,21.547 16.985,21.547 0,0 -6.039,-3.004 -11.661,-3.915 -4.089,-0.656 -8.261,0.7 -8.261,0.7 0,0 -2.168,4.523 -1.731,12.238 0.52,9.184 3.66,21.82 3.66,21.82 0,0 -11.71,-12.629 -16.773,-27.824 -1.422,-4.266 -2.488,-8.699 -3.293,-12.996 -3.102,-14.449 -2.426,-26.652 -2.426,-26.652 0,0 13.156,5.722 23.5,15.082 z M 69.902,301.918 c 8.024,8.839 12.996,22.359 12.996,22.359 0,0 -6.796,-3.793 -13.781,-5.402 -5.316,-1.227 -11.281,-0.383 -11.281,-0.383 0,0 -1.867,5.5 -2.609,13.371 -1.329,14.027 -0.602,36.113 -0.602,36.113 0,0 -12.09,-21.972 -12.59,-41.824 -0.465,-18.32 9.375,-36.574 9.375,-36.574 0,0 10.778,3.836 18.492,12.34 z M 46.91,246.519 c 0,0 11.758,8.867 18.102,19.215 5.843,9.539 6.32,20.629 6.32,20.629 0,0 -5.672,-3.098 -11.699,-5.441 -5.516,-2.145 -11.438,-3.555 -11.438,-3.555 0,0 -6.558,7.164 -10.59,16.574 -6.121,14.285 -10.613,32.906 -10.613,32.906 0,0 -6.5,-24.937 -1.476,-45.195 4.937,-19.902 21.394,-35.133 21.394,-35.133 z m 3.215,-48.836 c 0,0 8.105,8.543 12.473,19.313 4.621,11.383 5.519,25.027 5.519,25.027 L 49.48,225.316 c 0,0 -10.011,6.633 -18.609,18.012 -11.777,15.582 -23.16,37.254 -23.16,37.254 0,0 -1.434,-33.918 9.254,-54.805 10.519,-20.559 33.16,-28.094 33.16,-28.094 z m 12.211,-44.984 c 0,0 7.156,8.289 9.398,18.957 2.828,13.43 0.883,29.883 0.883,29.883 0,0 -3.262,-6.817 -7.418,-13.051 -3.5,-5.25 -8.008,-10.082 -8.008,-10.082 0,0 -11.683,4.703 -23.093,15.465 C 18.043,209.015 0,233.672 0,233.672 c 0,0 1.664,-36.774 16.953,-56.364 15.555,-19.929 45.383,-24.609 45.383,-24.609 z m 25.062,-43.055 c 0,0 4.352,11.594 4.2,24.414 -0.168,14.11 -4.844,29.567 -4.844,29.567 L 71.973,135.347 c 0,0 -13.879,-0.445 -27.75,6.848 -16.981,8.93 -34.582,25.926 -34.582,25.926 0,0 11.519,-32.137 31.476,-47.145 18.891,-14.211 46.281,-11.332 46.281,-11.332 z m 30.204,-37.273 c 0,0 2.043,13.07 0.109,24.976 -2.223,13.672 -8.465,26.434 -8.465,26.434 0,0 -1.184,-9.336 -3.984,-17.734 -2.289,-6.872 -6.297,-13.11 -6.297,-13.11 0,0 -7.926,-1.172 -18.02,-0.277 -14.48,1.281 -32.75,4.773 -32.75,4.773 0,0 9.867,-13.648 27.637,-20.066 16.91,-6.106 41.77,-4.996 41.77,-4.996 z m 14.136,22.492 -2.57,-32.773 c 0,0 -7.445,-2.93 -17.371,-3.336 -13.086,-0.539 -29.539,1.41 -29.539,1.41 0,0 14.39,-12.282 31.547,-16.25 17.539,-4.063 37.855,0.183 37.855,0.183 0,0 2.168,11.59 -2.414,22.668 -5.324,12.883 -17.508,28.098 -17.508,28.098 z m 120.5,-67.516 c -10.976,6.063 -27.32,9.68 -27.32,9.68 0,0 -16.465,2.688 -32.082,7.242 -15.223,4.442 -29.609,10.754 -29.609,10.754 0,0 3.23,-8.043 1.492,-13.601 -1.449,-4.637 -7.918,-6.965 -7.918,-6.965 l 14.137,-4.496 c 0,0 35.691,-1.039 56.562,-4.434 18.508,-3.012 22.48,-8.418 22.48,-8.418 0,0 -2.261,-2.375 -10.21,-3.656 -11.356,-1.832 -28.348,-1.485 -28.348,-1.485 L 223.633,0.402 c 0,0 13.379,-1.637 24.937,1.715 10.571,3.062 19.403,11.137 19.403,11.137 0,0 -5.192,8.273 -15.735,14.093 z m 199.535,363.278 c 14.43,-11.832 26.977,-7.868 26.977,-7.868 0,0 -3.027,13.883 -9.844,25.079 -6.676,10.972 -17.144,19.261 -17.144,19.261 l 1.285,-12.851 c 0,0 -13.149,10.379 -23.711,16.187 -8.484,4.668 -14.848,5.02 -14.848,5.02 0,0 19.867,-30.543 37.285,-44.828 z M 484.809,349 c 10.347,-9.36 23.503,-15.082 23.503,-15.082 0,0 0.676,12.183 -2.421,26.625 -0.805,4.304 -1.871,8.75 -3.297,13.023 -5.067,15.195 -16.774,27.824 -16.774,27.824 0,0 3.141,-12.636 3.66,-21.824 0.438,-7.711 -1.734,-12.234 -1.734,-12.234 0,0 -4.172,-1.356 -8.258,-0.7 -5.621,0.911 -11.66,3.915 -11.66,3.915 0,0 7.094,-12.602 16.981,-21.547 z m 5.511,-24.723 c 0,0 4.973,-13.516 12.992,-22.359 7.719,-8.5 18.493,-12.34 18.493,-12.34 0,0 9.84,18.254 9.379,36.574 -0.5,19.855 -12.59,41.824 -12.59,41.824 0,0 0.726,-22.086 -0.602,-36.113 -0.746,-7.871 -2.613,-13.371 -2.613,-13.371 0,0 -5.965,-0.848 -11.281,0.383 -6.985,1.609 -13.778,5.402 -13.778,5.402 z m 23.266,-43.355 c -6.031,2.343 -11.699,5.441 -11.699,5.441 0,0 0.472,-11.09 6.32,-20.629 6.344,-10.348 18.098,-19.215 18.098,-19.215 0,0 16.461,15.231 21.394,35.133 5.024,20.258 -1.472,45.195 -1.472,45.195 0,0 -4.497,-18.621 -10.618,-32.906 -4.035,-9.41 -10.589,-16.574 -10.589,-16.574 0,0 -5.918,1.41 -11.434,3.555 z m 10.148,-55.606 -18.636,16.707 c 0,0 0.898,-13.644 5.519,-25.031 4.367,-10.766 12.473,-19.309 12.473,-19.309 0,0 22.644,7.535 33.16,28.09 10.688,20.891 9.254,54.805 9.254,54.805 0,0 -11.383,-21.672 -23.16,-37.254 -8.598,-11.375 -18.61,-18.008 -18.61,-18.008 z m 15.383,-31.445 c -11.41,-10.762 -23.094,-15.469 -23.094,-15.469 0,0 -4.511,4.836 -8.011,10.086 -4.153,6.23 -7.414,13.051 -7.414,13.051 0,0 -1.95,-16.453 0.882,-29.883 2.247,-10.672 9.399,-18.957 9.399,-18.957 0,0 29.828,4.68 45.387,24.609 15.289,19.586 16.949,56.36 16.949,56.36 0,0 -18.043,-24.653 -34.098,-39.797 z m -37.875,-58.524 -14.781,28.278 c 0,0 -4.672,-15.457 -4.84,-29.567 -0.156,-12.816 4.199,-24.414 4.199,-24.414 0,0 27.387,-2.879 46.282,11.332 19.957,15.008 31.476,47.145 31.476,47.145 0,0 -17.605,-16.996 -34.582,-25.926 -13.871,-7.293 -27.754,-6.848 -27.754,-6.848 z m -26.988,-42.41 c 0,0 -4.008,6.238 -6.297,13.11 -2.801,8.398 -3.984,17.734 -3.984,17.734 0,0 -6.243,-12.762 -8.465,-26.434 -1.938,-11.906 0.109,-24.976 0.109,-24.976 0,0 24.86,-1.11 41.77,4.996 17.769,6.418 27.636,20.066 27.636,20.066 0,0 -18.269,-3.488 -32.753,-4.773 -10.094,-0.895 -18.016,0.277 -18.016,0.277 z M 461.422,58.754 c -9.93,0.406 -17.371,3.336 -17.371,3.336 l -2.571,32.773 c 0,0 -12.183,-15.215 -17.511,-28.098 -4.578,-11.078 -2.41,-22.668 -2.41,-22.668 0,0 20.312,-4.25 37.851,-0.183 17.156,3.968 31.551,16.25 31.551,16.25 0,0 -16.453,-1.949 -29.539,-1.41 z M 408.5,41.422 c -1.738,5.558 1.492,13.601 1.492,13.601 0,0 -14.39,-6.312 -29.613,-10.754 -15.617,-4.554 -32.078,-7.242 -32.078,-7.242 0,0 -16.348,-3.617 -27.324,-9.68 -10.543,-5.82 -15.735,-14.097 -15.735,-14.097 0,0 8.836,-8.075 19.403,-11.137 11.558,-3.352 24.941,-1.715 24.941,-1.715 l 12.211,11.567 c 0,0 -16.996,-0.348 -28.352,1.484 -7.949,1.281 -10.207,3.656 -10.207,3.656 0,0 3.969,5.41 22.481,8.418 20.867,3.395 56.558,4.434 56.558,4.434 l 14.141,4.5 c 0,0 -6.469,2.328 -7.918,6.965 z" id="path2999" style="fill:#ffffff;fill-opacity:1;fill-rule:nonzero;stroke:none"/>
        <path d="m 286.609,433.336 c -108.246,0 -196,-87.75 -196,-196 0,-108.246 87.754,-195.996 196,-195.996 108.25,0 196,87.75 196,196 -0.004,108.246 -87.75,195.996 -196,195.996 z m 0,-381.715 c -102.57,0 -185.718,83.152 -185.718,185.719 0,102.57 83.148,185.714 185.718,185.714 102.567,0 185.719,-83.148 185.719,-185.714 0,-102.571 -83.152,-185.719 -185.719,-185.719 z" id="path3001" style="fill:#ffffff;fill-opacity:1;fill-rule:nonzero;stroke:none"/>
        <path d="m 464.578,237.34 c 0,-98.29 -79.68,-177.969 -177.969,-177.969 -98.289,0 -177.968,79.679 -177.968,177.969 0,98.289 79.679,177.968 177.968,177.968 98.289,0 177.969,-79.679 177.969,-177.968 z" id="path3003" style="fill:#003cff;fill-opacity:1;fill-rule:nonzero;stroke:none"/>
        <path d="m 279.477,232.175 0.003,0 -0.011,0 c -0.781,0.012 -36.188,0.575 -42.035,6.422 -5.848,5.848 -6.411,41.254 -6.422,42.032 l 0,0.015 0,-0.008 0,0.008 0,-0.015 c -0.012,-0.778 -0.574,-36.184 -6.422,-42.032 -5.82,-5.816 -40.883,-6.406 -42.02,-6.422 l -0.027,0 0.016,0 -0.016,0 0.027,0 c 1.137,-0.019 36.203,-0.609 42.02,-6.425 5.848,-5.848 6.41,-41.254 6.422,-42.032 l 0,-0.015 0,0.008 0,-0.008 0,0.015 c 0.011,0.778 0.578,36.184 6.426,42.032 5.843,5.847 41.253,6.414 42.031,6.425 l 0.011,0 -0.003,0 z" id="path3005" style="fill:#ffffff;fill-opacity:1;fill-rule:nonzero;stroke:none"/>
        <path d="m 360.746,289.175 0.008,0 -0.012,0 c -0.601,0.008 -27.914,0.446 -32.422,4.954 -4.511,4.511 -4.949,31.824 -4.957,32.425 l 0,0.008 0,-0.004 0,0.004 0,-0.008 c -0.008,-0.601 -0.441,-27.914 -4.953,-32.425 -4.488,-4.485 -31.535,-4.942 -32.41,-4.954 l -0.023,0 0.011,0 c -0.008,0 -0.011,0 -0.011,0 l 0.023,0 c 0.875,-0.015 27.926,-0.468 32.41,-4.953 4.512,-4.511 4.945,-31.824 4.953,-32.425 l 0,-0.012 0,0.008 0,-0.008 0,0.012 c 0.012,0.601 0.446,27.914 4.957,32.425 4.512,4.508 31.821,4.946 32.422,4.953 l 0.012,0 -0.008,0 z" id="path3007" style="fill:#ffffff;fill-opacity:1;fill-rule:nonzero;stroke:none"/>
        <path d="m 377.863,191.543 0.004,0 -0.012,0 c -0.558,0.007 -26.054,0.414 -30.261,4.625 -4.215,4.211 -4.617,29.703 -4.625,30.261 l 0,0.012 0,-0.004 0,0.004 0,-0.012 c -0.012,-0.558 -0.418,-26.05 -4.629,-30.265 -4.188,-4.184 -29.434,-4.61 -30.25,-4.621 l -0.024,0 0.012,0 c -0.008,0 -0.012,0 -0.012,0 l 0.024,0 c 0.816,-0.016 26.062,-0.442 30.25,-4.625 4.215,-4.211 4.617,-29.707 4.629,-30.266 l 0,-0.012 0,0.004 0,-0.004 0,0.012 c 0.008,0.559 0.414,26.055 4.625,30.266 4.207,4.211 29.703,4.617 30.261,4.625 l 0.012,0 -0.004,0 z" id="path3009" style="fill:#ffffff;fill-opacity:1;fill-rule:nonzero;stroke:none"/>
        <path d="m 356.492,238.398 c 0,-4.476 -3.629,-8.105 -8.105,-8.105 -4.477,0 -8.11,3.629 -8.11,8.105 0,4.481 3.633,8.109 8.11,8.109 4.476,0 8.105,-3.628 8.105,-8.109 z" id="path3011" style="fill:#ffffff;fill-opacity:1;fill-rule:nonzero;stroke:none"/>
        <path d="m 308.234,207.273 c 0,-4.476 -3.629,-8.105 -8.105,-8.105 -4.477,0 -8.106,3.629 -8.106,8.105 0,4.477 3.629,8.106 8.106,8.106 4.476,0 8.105,-3.629 8.105,-8.106 z" id="path3013" style="fill:#ffffff;fill-opacity:1;fill-rule:nonzero;stroke:none"/>
        <path d="m 254.875,148.968 c 0,-4.476 -3.633,-8.105 -8.109,-8.105 -4.477,0 -8.106,3.629 -8.106,8.105 0,4.481 3.629,8.11 8.106,8.11 4.476,0 8.109,-3.629 8.109,-8.11 z" id="path3015" style="fill:#ffffff;fill-opacity:1;fill-rule:nonzero;stroke:none"/>
        <path d="m 294.156,257.781 c 0,-4.16 -3.375,-7.531 -7.535,-7.531 -4.16,0 -7.531,3.371 -7.531,7.531 0,4.16 3.371,7.531 7.531,7.531 4.16,0 7.535,-3.371 7.535,-7.531 z" id="path3017" style="fill:#ffffff;fill-opacity:1;fill-rule:nonzero;stroke:none"/>
        <path d="m 295.07,165.101 c 0,-4.418 -3.582,-8 -8,-8 -4.418,0 -8,3.582 -8,8 0,4.418 3.582,8 8,8 4.418,0 8,-3.582 8,-8 z" id="path3019" style="fill:#ffffff;fill-opacity:1;fill-rule:nonzero;stroke:none"/>
        <path d="m 188.664,159.511 c 0,-4.476 -3.629,-8.109 -8.105,-8.109 -4.477,0 -8.11,3.633 -8.11,8.109 0,4.477 3.633,8.106 8.11,8.106 4.476,0 8.105,-3.629 8.105,-8.106 z" id="path3021" style="fill:#ffffff;fill-opacity:1;fill-rule:nonzero;stroke:none"/>
        <path d="m 446.691,301.808 c 0,-4.476 -3.629,-8.105 -8.109,-8.105 -4.477,0 -8.105,3.629 -8.105,8.105 0,4.481 3.628,8.11 8.105,8.11 4.48,0 8.109,-3.629 8.109,-8.11 z" id="path3023" style="fill:#ffffff;fill-opacity:1;fill-rule:nonzero;stroke:none"/>
        <path d="m 400.867,318.058 c 0,-4.515 -3.66,-8.179 -8.179,-8.179 -4.516,0 -8.18,3.664 -8.18,8.179 0,4.52 3.664,8.184 8.18,8.184 4.519,0 8.179,-3.664 8.179,-8.184 z" id="path3025" style="fill:#ffffff;fill-opacity:1;fill-rule:nonzero;stroke:none"/>
        <path d="m 291.582,235.273 c 0,-3.285 -2.66,-5.949 -5.945,-5.949 -3.285,0 -5.949,2.664 -5.949,5.949 0,3.281 2.664,5.945 5.949,5.945 3.285,0 5.945,-2.664 5.945,-5.945 z" id="path3027" style="fill:#ffffff;fill-opacity:1;fill-rule:nonzero;stroke:none"/>
        <path d="m 210.332,163.023 c 0,-3.285 -2.664,-5.949 -5.949,-5.949 -3.285,0 -5.945,2.664 -5.945,5.949 0,3.285 2.66,5.949 5.945,5.949 3.285,0 5.949,-2.664 5.949,-5.949 z" id="path3029" style="fill:#ffffff;fill-opacity:1;fill-rule:nonzero;stroke:none"/>
        <path d="m 141.598,191.789 c 0,-3.285 -2.664,-5.946 -5.946,-5.946 -3.285,0 -5.949,2.661 -5.949,5.946 0,3.285 2.664,5.949 5.949,5.949 3.282,0 5.946,-2.664 5.946,-5.949 z" id="path3031" style="fill:#ffffff;fill-opacity:1;fill-rule:nonzero;stroke:none"/>
        <path d="m 317.605,388.441 c 0,-3.285 -2.664,-5.949 -5.949,-5.949 -3.285,0 -5.949,2.664 -5.949,5.949 0,3.285 2.664,5.949 5.949,5.949 3.285,0 5.949,-2.664 5.949,-5.949 z" id="path3033" style="fill:#ffffff;fill-opacity:1;fill-rule:nonzero;stroke:none"/>
        <path d="m 350.105,395.687 c 0,-3.285 -2.664,-5.949 -5.949,-5.949 -3.285,0 -5.945,2.664 -5.945,5.949 0,3.285 2.66,5.949 5.945,5.949 3.285,0 5.949,-2.664 5.949,-5.949 z" id="path3035" style="fill:#ffffff;fill-opacity:1;fill-rule:nonzero;stroke:none"/>
        <path d="m 152.699,257.629 c 0,-3.629 -2.941,-6.571 -6.57,-6.571 -3.625,0 -6.567,2.942 -6.567,6.571 0,3.625 2.942,6.566 6.567,6.566 3.629,0 6.57,-2.941 6.57,-6.566 z" id="path3037" style="fill:#ffffff;fill-opacity:1;fill-rule:nonzero;stroke:none"/>
        <path d="m 139.508,210.965 c 0,-3.625 -2.942,-6.567 -6.567,-6.567 -3.629,0 -6.57,2.942 -6.57,6.567 0,3.628 2.941,6.57 6.57,6.57 3.625,0 6.567,-2.942 6.567,-6.57 z" id="path3039" style="fill:#ffffff;fill-opacity:1;fill-rule:nonzero;stroke:none"/>
        <path d="m 258.352,329.808 c 0,-3.629 -2.942,-6.57 -6.571,-6.57 -3.629,0 -6.57,2.941 -6.57,6.57 0,3.625 2.941,6.567 6.57,6.567 3.629,0 6.571,-2.942 6.571,-6.567 z" id="path3041" style="fill:#ffffff;fill-opacity:1;fill-rule:nonzero;stroke:none"/>
        <path d="m 227.824,327.871 c 0,-2.457 -1.992,-4.449 -4.449,-4.449 -2.461,0 -4.453,1.992 -4.453,4.449 0,2.457 1.992,4.453 4.453,4.453 2.457,0 4.449,-1.996 4.449,-4.453 z" id="path3043" style="fill:#ffffff;fill-opacity:1;fill-rule:nonzero;stroke:none"/>
        <path d="m 280.492,353.582 c 0,-2.457 -1.992,-4.453 -4.449,-4.453 -2.461,0 -4.453,1.996 -4.453,4.453 0,2.457 1.992,4.449 4.453,4.449 2.457,0 4.449,-1.992 4.449,-4.449 z" id="path3045" style="fill:#ffffff;fill-opacity:1;fill-rule:nonzero;stroke:none"/>
        <path d="m 291.91,279.359 c 0,-2.457 -1.992,-4.453 -4.449,-4.453 -2.457,0 -4.453,1.996 -4.453,4.453 0,2.457 1.996,4.449 4.453,4.449 2.457,0 4.449,-1.992 4.449,-4.449 z" id="path3047" style="fill:#ffffff;fill-opacity:1;fill-rule:nonzero;stroke:none"/>
        <path d="m 248.035,254.707 c 0,-2.461 -1.996,-4.453 -4.453,-4.453 -2.457,0 -4.449,1.992 -4.449,4.453 0,2.457 1.992,4.449 4.449,4.449 2.457,0 4.453,-1.992 4.453,-4.449 z" id="path3049" style="fill:#ffffff;fill-opacity:1;fill-rule:nonzero;stroke:none"/>
        <path d="m 267.027,217.375 c 0,-2.461 -1.992,-4.453 -4.449,-4.453 -2.457,0 -4.453,1.992 -4.453,4.453 0,2.457 1.996,4.449 4.453,4.449 2.457,0 4.449,-1.992 4.449,-4.449 z" id="path3051" style="fill:#ffffff;fill-opacity:1;fill-rule:nonzero;stroke:none"/>
        <path d="m 274.605,180.043 c 0,-2.457 -1.992,-4.453 -4.453,-4.453 -2.457,0 -4.449,1.996 -4.449,4.453 0,2.457 1.992,4.449 4.449,4.449 2.461,0 4.453,-1.992 4.453,-4.449 z" id="path3053" style="fill:#ffffff;fill-opacity:1;fill-rule:nonzero;stroke:none"/>
        <path d="m 275.262,204.199 c 0,-2.461 -1.992,-4.453 -4.45,-4.453 -2.457,0 -4.453,1.992 -4.453,4.453 0,2.457 1.996,4.449 4.453,4.449 2.458,0 4.45,-1.992 4.45,-4.449 z" id="path3055" style="fill:#ffffff;fill-opacity:1;fill-rule:nonzero;stroke:none"/>
        <path d="m 291.512,198.929 c 0,-2.461 -1.992,-4.453 -4.45,-4.453 -2.457,0 -4.453,1.992 -4.453,4.453 0,2.457 1.996,4.45 4.453,4.45 2.458,0 4.45,-1.993 4.45,-4.45 z" id="path3057" style="fill:#ffffff;fill-opacity:1;fill-rule:nonzero;stroke:none"/>
        <path d="m 355.309,216.496 c 0,-2.457 -1.997,-4.449 -4.454,-4.449 -2.457,0 -4.449,1.992 -4.449,4.449 0,2.457 1.992,4.453 4.449,4.453 2.457,0 4.454,-1.996 4.454,-4.453 z" id="path3059" style="fill:#ffffff;fill-opacity:1;fill-rule:nonzero;stroke:none"/>
        <path d="m 329.34,206.007 c 0,-2.457 -1.996,-4.449 -4.453,-4.449 -2.457,0 -4.453,1.992 -4.453,4.449 0,2.461 1.996,4.454 4.453,4.454 2.457,0 4.453,-1.993 4.453,-4.454 z" id="path3061" style="fill:#ffffff;fill-opacity:1;fill-rule:nonzero;stroke:none"/>
        <path d="m 384.621,263.929 c 0,-2.461 -1.992,-4.453 -4.449,-4.453 -2.461,0 -4.453,1.992 -4.453,4.453 0,2.457 1.992,4.45 4.453,4.45 2.457,0 4.449,-1.993 4.449,-4.45 z" id="path3063" style="fill:#ffffff;fill-opacity:1;fill-rule:nonzero;stroke:none"/>
        <path d="m 293.27,219.789 c 0,-2.457 -1.993,-4.449 -4.45,-4.449 -2.461,0 -4.453,1.992 -4.453,4.449 0,2.461 1.992,4.453 4.453,4.453 2.457,0 4.45,-1.992 4.45,-4.453 z" id="path3065" style="fill:#ffffff;fill-opacity:1;fill-rule:nonzero;stroke:none"/>
        <path d="m 314.789,183.554 c 0,-2.457 -1.992,-4.449 -4.449,-4.449 -2.457,0 -4.449,1.992 -4.449,4.449 0,2.457 1.992,4.45 4.449,4.45 2.457,0 4.449,-1.993 4.449,-4.45 z" id="path3067" style="fill:#ffffff;fill-opacity:1;fill-rule:nonzero;stroke:none"/>
        <path d="m 396.484,261.293 c 0,-2.457 -1.996,-4.45 -4.453,-4.45 -2.457,0 -4.453,1.993 -4.453,4.45 0,2.461 1.996,4.453 4.453,4.453 2.457,0 4.453,-1.992 4.453,-4.453 z" id="path3069" style="fill:#ffffff;fill-opacity:1;fill-rule:nonzero;stroke:none"/>
        <path d="m 431.617,284.679 c 0,-2.457 -1.992,-4.449 -4.453,-4.449 -2.457,0 -4.449,1.992 -4.449,4.449 0,2.461 1.992,4.453 4.449,4.453 2.461,0 4.453,-1.992 4.453,-4.453 z" id="path3071" style="fill:#ffffff;fill-opacity:1;fill-rule:nonzero;stroke:none"/>
        <path d="m 431.617,224.371 c 0,-2.805 -2.277,-5.082 -5.082,-5.082 -2.805,0 -5.078,2.277 -5.078,5.082 0,2.804 2.273,5.082 5.078,5.082 2.805,0 5.082,-2.278 5.082,-5.082 z" id="path3073" style="fill:#ffffff;fill-opacity:1;fill-rule:nonzero;stroke:none"/>
        <path d="m 377.594,298.625 c 0,-2.461 -1.992,-4.453 -4.449,-4.453 -2.461,0 -4.454,1.992 -4.454,4.453 0,2.457 1.993,4.449 4.454,4.449 2.457,0 4.449,-1.992 4.449,-4.449 z" id="path3075" style="fill:#ffffff;fill-opacity:1;fill-rule:nonzero;stroke:none"/>
        <path d="m 405.703,306.75 c 0,-2.457 -1.992,-4.453 -4.449,-4.453 -2.461,0 -4.453,1.996 -4.453,4.453 0,2.457 1.992,4.449 4.453,4.449 2.457,0 4.449,-1.992 4.449,-4.449 z" id="path3077" style="fill:#ffffff;fill-opacity:1;fill-rule:nonzero;stroke:none"/>
        <path d="m 409.328,292.914 c 0,-2.457 -1.992,-4.449 -4.453,-4.449 -2.457,0 -4.449,1.992 -4.449,4.449 0,2.461 1.992,4.453 4.449,4.453 2.461,0 4.453,-1.992 4.453,-4.453 z" id="path3079" style="fill:#ffffff;fill-opacity:1;fill-rule:nonzero;stroke:none"/>
        <path d="m 385.062,339.031 c 0,-2.457 -1.992,-4.453 -4.453,-4.453 -2.457,0 -4.449,1.996 -4.449,4.453 0,2.461 1.992,4.453 4.449,4.453 2.461,0 4.453,-1.992 4.453,-4.453 z" id="path3081" style="fill:#ffffff;fill-opacity:1;fill-rule:nonzero;stroke:none"/>
        <path d="m 414.926,328.488 c 0,-2.457 -1.992,-4.449 -4.449,-4.449 -2.457,0 -4.454,1.992 -4.454,4.449 0,2.461 1.997,4.453 4.454,4.453 2.457,0 4.449,-1.992 4.449,-4.453 z" id="path3083" style="fill:#ffffff;fill-opacity:1;fill-rule:nonzero;stroke:none"/>
        <path d="m 397.141,362.308 c 0,-2.457 -1.993,-4.453 -4.453,-4.453 -2.458,0 -4.45,1.996 -4.45,4.453 0,2.457 1.992,4.449 4.45,4.449 2.46,0 4.453,-1.992 4.453,-4.449 z" id="path3085" style="fill:#ffffff;fill-opacity:1;fill-rule:nonzero;stroke:none"/>
        <path d="m 246.277,196.73 c 0,-2.457 -1.992,-4.449 -4.453,-4.449 -2.457,0 -4.449,1.992 -4.449,4.449 0,2.461 1.992,4.453 4.449,4.453 2.461,0 4.453,-1.992 4.453,-4.453 z" id="path3087" style="fill:#ffffff;fill-opacity:1;fill-rule:nonzero;stroke:none"/>
        <path d="m 242.543,164.23 c 0,-2.457 -1.992,-4.449 -4.449,-4.449 -2.461,0 -4.453,1.992 -4.453,4.449 0,2.461 1.992,4.453 4.453,4.453 2.457,0 4.449,-1.992 4.449,-4.453 z" id="path3089" style="fill:#ffffff;fill-opacity:1;fill-rule:nonzero;stroke:none"/>
        <path d="m 221.68,157.863 c 0,-2.457 -1.992,-4.449 -4.45,-4.449 -2.457,0 -4.453,1.992 -4.453,4.449 0,2.457 1.996,4.453 4.453,4.453 2.458,0 4.45,-1.996 4.45,-4.453 z" id="path3091" style="fill:#ffffff;fill-opacity:1;fill-rule:nonzero;stroke:none"/>
        <path d="m 212.02,184.215 c 0,-2.458 -1.993,-4.454 -4.454,-4.454 -2.457,0 -4.449,1.996 -4.449,4.454 0,2.457 1.992,4.449 4.449,4.449 2.461,0 4.454,-1.992 4.454,-4.449 z" id="path3093" style="fill:#ffffff;fill-opacity:1;fill-rule:nonzero;stroke:none"/>
        <path d="m 228.051,184.215 c 0,-2.461 -1.992,-4.454 -4.453,-4.454 -2.457,0 -4.45,1.993 -4.45,4.454 0,2.457 1.993,4.449 4.45,4.449 2.461,0 4.453,-1.992 4.453,-4.449 z" id="path3095" style="fill:#ffffff;fill-opacity:1;fill-rule:nonzero;stroke:none"/>
        <path d="m 189.18,199.808 c 0,-2.461 -1.992,-4.453 -4.45,-4.453 -2.457,0 -4.453,1.992 -4.453,4.453 0,2.457 1.996,4.449 4.453,4.449 2.458,0 4.45,-1.992 4.45,-4.449 z" id="path3097" style="fill:#ffffff;fill-opacity:1;fill-rule:nonzero;stroke:none"/>
        <path d="m 203.785,224.07 c 0,-2.457 -1.992,-4.449 -4.453,-4.449 -2.457,0 -4.449,1.992 -4.449,4.449 0,2.461 1.992,4.453 4.449,4.453 2.461,0 4.453,-1.992 4.453,-4.453 z" id="path3099" style="fill:#ffffff;fill-opacity:1;fill-rule:nonzero;stroke:none"/>
        <path d="m 175.129,238.234 c 0,-2.457 -1.996,-4.449 -4.453,-4.449 -2.457,0 -4.449,1.992 -4.449,4.449 0,2.461 1.992,4.453 4.449,4.453 2.457,0 4.453,-1.992 4.453,-4.453 z" id="path3101" style="fill:#ffffff;fill-opacity:1;fill-rule:nonzero;stroke:none"/>
        <path d="m 136.918,285.996 c 0,-2.457 -1.992,-4.449 -4.453,-4.449 -2.457,0 -4.449,1.992 -4.449,4.449 0,2.461 1.992,4.453 4.449,4.453 2.461,0 4.453,-1.992 4.453,-4.453 z" id="path3103" style="fill:#ffffff;fill-opacity:1;fill-rule:nonzero;stroke:none"/>
        <path d="m 146.578,153.582 c 0,-2.461 -1.992,-4.453 -4.449,-4.453 -2.461,0 -4.453,1.992 -4.453,4.453 0,2.457 1.992,4.449 4.453,4.449 2.457,0 4.449,-1.992 4.449,-4.449 z" id="path3105" style="fill:#ffffff;fill-opacity:1;fill-rule:nonzero;stroke:none"/>
        <path d="m 176.883,128.547 c 0,-2.457 -1.992,-4.454 -4.449,-4.454 -2.461,0 -4.454,1.997 -4.454,4.454 0,2.457 1.993,4.449 4.454,4.449 2.457,0 4.449,-1.992 4.449,-4.449 z" id="path3107" style="fill:#ffffff;fill-opacity:1;fill-rule:nonzero;stroke:none"/>
        <path d="m 202.797,149.629 c 0,-2.457 -1.992,-4.454 -4.449,-4.454 -2.461,0 -4.453,1.993 -4.453,4.454 0,2.457 1.992,4.453 4.453,4.453 2.457,0 4.449,-1.996 4.449,-4.453 z" id="path3109" style="fill:#ffffff;fill-opacity:1;fill-rule:nonzero;stroke:none"/>
        <path d="m 316.105,74.308 c 0,-2.461 -1.992,-4.453 -4.449,-4.453 -2.457,0 -4.449,1.992 -4.449,4.453 0,2.457 1.992,4.449 4.449,4.449 2.457,0 4.449,-1.992 4.449,-4.449 z" id="path3111" style="fill:#ffffff;fill-opacity:1;fill-rule:nonzero;stroke:none"/>
        <path d="m 190.938,126.023 c 0,-2.461 -1.993,-4.453 -4.45,-4.453 -2.461,0 -4.453,1.992 -4.453,4.453 0,2.457 1.992,4.449 4.453,4.449 2.457,0 4.45,-1.992 4.45,-4.449 z" id="path3113" style="fill:#ffffff;fill-opacity:1;fill-rule:nonzero;stroke:none"/>
        <path d="m 195.77,101.535 c 0,-2.457 -1.993,-4.449 -4.45,-4.449 -2.461,0 -4.453,1.992 -4.453,4.449 0,2.457 1.992,4.453 4.453,4.453 2.457,0 4.45,-1.996 4.45,-4.453 z" id="path3115" style="fill:#ffffff;fill-opacity:1;fill-rule:nonzero;stroke:none"/>
        <path d="m 220.805,120.754 c 0,-2.461 -1.996,-4.454 -4.453,-4.454 -2.457,0 -4.45,1.993 -4.45,4.454 0,2.457 1.993,4.449 4.45,4.449 2.457,0 4.453,-1.992 4.453,-4.449 z" id="path3117" style="fill:#ffffff;fill-opacity:1;fill-rule:nonzero;stroke:none"/>
        <path d="m 308.641,112.187 c 0,-2.461 -1.993,-4.453 -4.45,-4.453 -2.461,0 -4.453,1.992 -4.453,4.453 0,2.457 1.992,4.449 4.453,4.449 2.457,0 4.45,-1.992 4.45,-4.449 z" id="path3119" style="fill:#ffffff;fill-opacity:1;fill-rule:nonzero;stroke:none"/>
        <path d="m 315.453,141.172 c 0,-2.457 -1.996,-4.45 -4.453,-4.45 -2.457,0 -4.453,1.993 -4.453,4.45 0,2.46 1.996,4.453 4.453,4.453 2.457,0 4.453,-1.993 4.453,-4.453 z" id="path3121" style="fill:#ffffff;fill-opacity:1;fill-rule:nonzero;stroke:none"/>
        <path d="m 413.938,137.222 c 0,-2.461 -1.993,-4.453 -4.45,-4.453 -2.457,0 -4.449,1.992 -4.449,4.453 0,2.457 1.992,4.45 4.449,4.45 2.457,0 4.45,-1.993 4.45,-4.45 z" id="path3123" style="fill:#ffffff;fill-opacity:1;fill-rule:nonzero;stroke:none"/>
        <path d="m 391.543,206.613 c 0,-2.457 -1.996,-4.449 -4.453,-4.449 -2.457,0 -4.449,1.992 -4.449,4.449 0,2.457 1.992,4.453 4.449,4.453 2.457,0 4.453,-1.996 4.453,-4.453 z" id="path3125" style="fill:#ffffff;fill-opacity:1;fill-rule:nonzero;stroke:none"/>
        <path d="m 373.844,230.004 c 0,-2.684 -2.18,-4.864 -4.867,-4.864 -2.688,0 -4.864,2.18 -4.864,4.864 0,2.687 2.176,4.867 4.864,4.867 2.687,0 4.867,-2.18 4.867,-4.867 z" id="path3127" style="fill:#ffffff;fill-opacity:1;fill-rule:nonzero;stroke:none"/>
        <path d="m 364.531,246.441 c 0,-2.625 -2.129,-4.754 -4.754,-4.754 -2.625,0 -4.754,2.129 -4.754,4.754 0,2.625 2.129,4.754 4.754,4.754 2.625,0 4.754,-2.129 4.754,-4.754 z" id="path3129" style="fill:#ffffff;fill-opacity:1;fill-rule:nonzero;stroke:none"/>
        <path d="m 319.891,241.613 c 0,-2.773 -2.25,-5.023 -5.024,-5.023 -2.777,0 -5.027,2.25 -5.027,5.023 0,2.777 2.25,5.027 5.027,5.027 2.774,0 5.024,-2.25 5.024,-5.027 z" id="path3131" style="fill:#ffffff;fill-opacity:1;fill-rule:nonzero;stroke:none"/>
        <path d="m 358.762,299.59 c 0,-2.778 -2.25,-5.028 -5.028,-5.028 -2.773,0 -5.023,2.25 -5.023,5.028 0,2.773 2.25,5.023 5.023,5.023 2.778,0 5.028,-2.25 5.028,-5.023 z" id="path3133" style="fill:#ffffff;fill-opacity:1;fill-rule:nonzero;stroke:none"/>
        <path d="m 348.469,275.129 c 0,-2.868 -2.324,-5.188 -5.192,-5.188 -2.863,0 -5.187,2.32 -5.187,5.188 0,2.863 2.324,5.187 5.187,5.187 2.868,0 5.192,-2.324 5.192,-5.187 z" id="path3135" style="fill:#ffffff;fill-opacity:1;fill-rule:nonzero;stroke:none"/>
        <path d="m 298.98,119.652 c 0,-2.457 -1.992,-4.449 -4.449,-4.449 -2.461,0 -4.453,1.992 -4.453,4.449 0,2.461 1.992,4.453 4.453,4.453 2.457,0 4.449,-1.992 4.449,-4.453 z" id="path3137" style="fill:#ffffff;fill-opacity:1;fill-rule:nonzero;stroke:none"/>
        <path d="m 325.332,147.761 c 0,-2.457 -1.992,-4.449 -4.453,-4.449 -2.457,0 -4.449,1.992 -4.449,4.449 0,2.457 1.992,4.454 4.449,4.454 2.461,0 4.453,-1.997 4.453,-4.454 z" id="path3139" style="fill:#ffffff;fill-opacity:1;fill-rule:nonzero;stroke:none"/>
        <path d="m 395.164,288.304 c 0,-2.461 -1.992,-4.453 -4.453,-4.453 -2.457,0 -4.449,1.992 -4.449,4.453 0,2.457 1.992,4.45 4.449,4.45 2.461,0 4.453,-1.993 4.453,-4.45 z" id="path3141" style="fill:#ffffff;fill-opacity:1;fill-rule:nonzero;stroke:none"/>
        <path d="m 363.98,278.8 c 0,-2.668 -2.16,-4.832 -4.828,-4.832 -2.668,0 -4.832,2.164 -4.832,4.832 0,2.668 2.164,4.832 4.832,4.832 2.668,0 4.828,-2.164 4.828,-4.832 z" id="path3143" style="fill:#ffffff;fill-opacity:1;fill-rule:nonzero;stroke:none"/>
        <path d="m 199.902,332.773 c 0,-3.285 -2.664,-5.949 -5.949,-5.949 -3.285,0 -5.949,2.664 -5.949,5.949 0,3.285 2.664,5.949 5.949,5.949 3.285,0 5.949,-2.664 5.949,-5.949 z" id="path3145" style="fill:#ffffff;fill-opacity:1;fill-rule:nonzero;stroke:none"/>
        <path d="m 311.457,152.265 c 0,-3.285 -2.664,-5.949 -5.949,-5.949 -3.285,0 -5.949,2.664 -5.949,5.949 0,3.285 2.664,5.946 5.949,5.946 3.285,0 5.949,-2.661 5.949,-5.946 z" id="path3147" style="fill:#ffffff;fill-opacity:1;fill-rule:nonzero;stroke:none"/>
        <path d="m 328.477,122.949 c 0,-3.285 -2.665,-5.949 -5.95,-5.949 -3.285,0 -5.949,2.664 -5.949,5.949 0,3.285 2.664,5.945 5.949,5.945 3.285,0 5.95,-2.66 5.95,-5.945 z" id="path3149" style="fill:#ffffff;fill-opacity:1;fill-rule:nonzero;stroke:none"/>
        <path d="m 232.949,116.359 c 0,-3.285 -2.66,-5.945 -5.945,-5.945 -3.285,0 -5.949,2.66 -5.949,5.945 0,3.285 2.664,5.949 5.949,5.949 3.285,0 5.945,-2.664 5.945,-5.949 z" id="path3151" style="fill:#ffffff;fill-opacity:1;fill-rule:nonzero;stroke:none"/>
        <path d="m 230.633,133.496 c 0,-3.528 -2.856,-6.383 -6.383,-6.383 -3.523,0 -6.379,2.855 -6.379,6.383 0,3.523 2.856,6.379 6.379,6.379 3.527,0 6.383,-2.856 6.383,-6.379 z" id="path3153" style="fill:#ffffff;fill-opacity:1;fill-rule:nonzero;stroke:none"/>
        <path d="m 230.562,388.179 c 0,-3.625 -2.937,-6.566 -6.566,-6.566 -3.625,0 -6.566,2.941 -6.566,6.566 0,3.629 2.941,6.567 6.566,6.567 3.629,0 6.566,-2.938 6.566,-6.567 z" id="path3155" style="fill:#ffffff;fill-opacity:1;fill-rule:nonzero;stroke:none"/>
        <path d="m 371.914,266.125 c 0,-3.625 -2.937,-6.567 -6.566,-6.567 -3.625,0 -6.563,2.942 -6.563,6.567 0,3.625 2.938,6.566 6.563,6.566 3.629,0 6.566,-2.941 6.566,-6.566 z" id="path3157" style="fill:#ffffff;fill-opacity:1;fill-rule:nonzero;stroke:none"/>
        <path d="m 424.945,272.164 c 0,-3.629 -2.937,-6.567 -6.566,-6.567 -3.625,0 -6.567,2.938 -6.567,6.567 0,3.625 2.942,6.566 6.567,6.566 3.629,0 6.566,-2.941 6.566,-6.566 z" id="path3159" style="fill:#ffffff;fill-opacity:1;fill-rule:nonzero;stroke:none"/>
        <path d="m 443.395,181.91 c 0,-3.629 -2.942,-6.567 -6.567,-6.567 -3.625,0 -6.566,2.938 -6.566,6.567 0,3.625 2.941,6.566 6.566,6.566 3.625,0 6.567,-2.941 6.567,-6.566 z" id="path3161" style="fill:#ffffff;fill-opacity:1;fill-rule:nonzero;stroke:none"/>
        <path d="m 447.348,259.976 c 0,-3.629 -2.942,-6.566 -6.567,-6.566 -3.629,0 -6.566,2.937 -6.566,6.566 0,3.625 2.937,6.567 6.566,6.567 3.625,0 6.567,-2.942 6.567,-6.567 z" id="path3163" style="fill:#ffffff;fill-opacity:1;fill-rule:nonzero;stroke:none"/>
        <path d="m 331.934,231.812 c 0,-3.285 -2.664,-5.949 -5.95,-5.949 -3.285,0 -5.945,2.664 -5.945,5.949 0,3.285 2.66,5.949 5.945,5.949 3.286,0 5.95,-2.664 5.95,-5.949 z" id="path3165" style="fill:#ffffff;fill-opacity:1;fill-rule:nonzero;stroke:none"/>
      </g>
    </g>
  </g>
</svg>